HIERARCHY
ROOT Hips
{
	OFFSET -14.64140 90.27770 -84.91600
	CHANNELS 6 Xposition Yposition Zposition Zrotation Xrotation Yrotation
	JOINT Spine
	{
		OFFSET 0.00000 13.20850 -1.60436
		CHANNELS 3 Zrotation Xrotation Yrotation
		JOINT Spine1
		{
			OFFSET 0.00000 8.61716 0.00000
			CHANNELS 3 Zrotation Xrotation Yrotation
			JOINT Spine2
			{
				OFFSET 0.00000 8.61717 0.00000
				CHANNELS 3 Zrotation Xrotation Yrotation
				JOINT Spine3
				{
					OFFSET 0.00000 8.61717 0.00000
					CHANNELS 3 Zrotation Xrotation Yrotation
					JOINT Neck
					{
						OFFSET 0.00000 11.07920 1.10792
						CHANNELS 3 Zrotation Xrotation Yrotation
						JOINT Neck1
						{
							OFFSET 0.00000 7.08032 0.00000
							CHANNELS 3 Zrotation Xrotation Yrotation
							JOINT Head
							{
								OFFSET 0.00000 7.08031 0.00000
								CHANNELS 3 Zrotation Xrotation Yrotation
								End site
								{
									OFFSET 0.00000 0.00000 0.00000
								}
							}
						}
					}
					JOINT RightShoulder
					{
						OFFSET -0.01000 7.91373 5.19711
						CHANNELS 3 Zrotation Xrotation Yrotation
						JOINT RightArm
						{
							OFFSET -18.41580 0.00000 0.00000
							CHANNELS 3 Zrotation Xrotation Yrotation
							JOINT RightForeArm
							{
								OFFSET -29.11090 0.00000 0.00000
								CHANNELS 3 Zrotation Xrotation Yrotation
								JOINT RightHand
								{
									OFFSET -24.65040 0.00000 0.00000
									CHANNELS 3 Zrotation Xrotation Yrotation
									JOINT RightHandThumb1
									{
										OFFSET -5.35114 -0.85590 3.97906
										CHANNELS 3 Zrotation Xrotation Yrotation
										JOINT RightHandThumb2
										{
											OFFSET -4.52789 0.00000 0.00000
											CHANNELS 3 Zrotation Xrotation Yrotation
											JOINT RightHandThumb3
											{
												OFFSET -2.46976 0.00000 0.00000
												CHANNELS 3 Zrotation Xrotation Yrotation
												End site
												{
													OFFSET 0.00000 0.00000 0.00000
												}
											}
										}
									}
									JOINT RightHandIndex1
									{
										OFFSET -14.26970 0.00000 2.88139
										CHANNELS 3 Zrotation Xrotation Yrotation
										JOINT RightHandIndex2
										{
											OFFSET -5.48836 0.00000 0.00000
											CHANNELS 3 Zrotation Xrotation Yrotation
											JOINT RightHandIndex3
											{
												OFFSET -3.01859 0.00000 0.00000
												CHANNELS 3 Zrotation Xrotation Yrotation
												End site
												{
													OFFSET 0.00000 0.00000 0.00000
												}
											}
										}
									}
									JOINT RightHandMiddle1
									{
										OFFSET -14.26970 0.00000 -0.09147
										CHANNELS 3 Zrotation Xrotation Yrotation
										JOINT RightHandMiddle2
										{
											OFFSET -6.17441 0.00000 0.00000
											CHANNELS 3 Zrotation Xrotation Yrotation
											JOINT RightHandMiddle3
											{
												OFFSET -3.56743 0.00000 0.00000
												CHANNELS 3 Zrotation Xrotation Yrotation
												End site
												{
													OFFSET 0.00000 0.00000 0.00000
												}
											}
										}
									}
									JOINT RightHandRing1
									{
										OFFSET -12.69180 0.00000 -3.06433
										CHANNELS 3 Zrotation Xrotation Yrotation
										JOINT RightHandRing2
										{
											OFFSET -5.62556 0.00000 0.00000
											CHANNELS 3 Zrotation Xrotation Yrotation
											JOINT RightHandRing3
											{
												OFFSET -3.56744 0.00000 0.00000
												CHANNELS 3 Zrotation Xrotation Yrotation
												End site
												{
													OFFSET 0.00000 0.00000 0.00000
												}
											}
										}
									}
									JOINT RightHandPinky1
									{
										OFFSET -11.11390 0.00000 -6.03719
										CHANNELS 3 Zrotation Xrotation Yrotation
										JOINT RightHandPinky2
										{
											OFFSET -4.52789 0.00000 0.00000
											CHANNELS 3 Zrotation Xrotation Yrotation
											JOINT RightHandPinky3
											{
												OFFSET -2.46976 0.00000 0.00000
												CHANNELS 3 Zrotation Xrotation Yrotation
												End site
												{
													OFFSET 0.00000 0.00000 0.00000
												}
											}
										}
									}
								}
							}
						}
					}
					JOINT LeftShoulder
					{
						OFFSET 0.01000 7.91373 5.19711
						CHANNELS 3 Zrotation Xrotation Yrotation
						JOINT LeftArm
						{
							OFFSET 18.41580 0.00000 0.00000
							CHANNELS 3 Zrotation Xrotation Yrotation
							JOINT LeftForeArm
							{
								OFFSET 29.11090 0.00000 0.00000
								CHANNELS 3 Zrotation Xrotation Yrotation
								JOINT LeftHand
								{
									OFFSET 24.65040 0.00000 0.00000
									CHANNELS 3 Zrotation Xrotation Yrotation
									JOINT LeftHandThumb1
									{
										OFFSET 5.35114 -0.85590 3.97906
										CHANNELS 3 Zrotation Xrotation Yrotation
										JOINT LeftHandThumb2
										{
											OFFSET 4.52789 0.00000 0.00000
											CHANNELS 3 Zrotation Xrotation Yrotation
											JOINT LeftHandThumb3
											{
												OFFSET 2.46977 0.00000 0.00000
												CHANNELS 3 Zrotation Xrotation Yrotation
												End site
												{
													OFFSET 0.00000 0.00000 0.00000
												}
											}
										}
									}
									JOINT LeftHandIndex1
									{
										OFFSET 14.26970 0.00000 2.88139
										CHANNELS 3 Zrotation Xrotation Yrotation
										JOINT LeftHandIndex2
										{
											OFFSET 5.48836 0.00000 0.00000
											CHANNELS 3 Zrotation Xrotation Yrotation
											JOINT LeftHandIndex3
											{
												OFFSET 3.01859 0.00000 0.00000
												CHANNELS 3 Zrotation Xrotation Yrotation
												End site
												{
													OFFSET 0.00000 0.00000 0.00000
												}
											}
										}
									}
									JOINT LeftHandMiddle1
									{
										OFFSET 14.26970 0.00000 -0.09147
										CHANNELS 3 Zrotation Xrotation Yrotation
										JOINT LeftHandMiddle2
										{
											OFFSET 6.17440 0.00000 0.00000
											CHANNELS 3 Zrotation Xrotation Yrotation
											JOINT LeftHandMiddle3
											{
												OFFSET 3.56744 0.00000 0.00000
												CHANNELS 3 Zrotation Xrotation Yrotation
												End site
												{
													OFFSET 0.00000 0.00000 0.00000
												}
											}
										}
									}
									JOINT LeftHandRing1
									{
										OFFSET 12.69180 0.00000 -3.06433
										CHANNELS 3 Zrotation Xrotation Yrotation
										JOINT LeftHandRing2
										{
											OFFSET 5.62556 0.00000 0.00000
											CHANNELS 3 Zrotation Xrotation Yrotation
											JOINT LeftHandRing3
											{
												OFFSET 3.56744 0.00000 0.00000
												CHANNELS 3 Zrotation Xrotation Yrotation
												End site
												{
													OFFSET 0.00000 0.00000 0.00000
												}
											}
										}
									}
									JOINT LeftHandPinky1
									{
										OFFSET 11.11390 0.00000 -6.03719
										CHANNELS 3 Zrotation Xrotation Yrotation
										JOINT LeftHandPinky2
										{
											OFFSET 4.52789 0.00000 0.00000
											CHANNELS 3 Zrotation Xrotation Yrotation
											JOINT LeftHandPinky3
											{
												OFFSET 2.46976 0.00000 0.00000
												CHANNELS 3 Zrotation Xrotation Yrotation
												End site
												{
													OFFSET 0.00000 0.00000 0.00000
												}
											}
										}
									}
								}
							}
						}
					}
					JOINT pCube4
					{
						OFFSET 0.00000 10.91090 1.10792
						CHANNELS 3 Zrotation Xrotation Yrotation
						End site
						{
							OFFSET 0.00000 0.00000 0.00000
						}
					}
				}
			}
		}
	}
	JOINT RightUpLeg
	{
		OFFSET -9.98441 0.00000 0.00000
		CHANNELS 3 Zrotation Xrotation Yrotation
		JOINT RightLeg
		{
			OFFSET 0.00000 -42.11790 0.00000
			CHANNELS 3 Zrotation Xrotation Yrotation
			JOINT RightFoot
			{
				OFFSET 0.00000 -45.00020 -0.00001
				CHANNELS 3 Zrotation Xrotation Yrotation
				JOINT RightForeFoot
				{
					OFFSET 0.00000 -3.74820 0.00000
					CHANNELS 3 Zrotation Xrotation Yrotation
					JOINT RightToeBase
					{
						OFFSET 0.00000 0.06325 14.43120
						CHANNELS 3 Zrotation Xrotation Yrotation
						End site
						{
							OFFSET 0.00000 0.00000 0.00000
						}
					}
				}
			}
		}
	}
	JOINT LeftUpLeg
	{
		OFFSET 9.98441 0.00000 0.00000
		CHANNELS 3 Zrotation Xrotation Yrotation
		JOINT LeftLeg
		{
			OFFSET 0.00000 -42.11800 0.00000
			CHANNELS 3 Zrotation Xrotation Yrotation
			JOINT LeftFoot
			{
				OFFSET 0.00000 -45.00070 0.00000
				CHANNELS 3 Zrotation Xrotation Yrotation
				JOINT LeftForeFoot
				{
					OFFSET 0.00000 -3.74824 0.00000
					CHANNELS 3 Zrotation Xrotation Yrotation
					JOINT LeftToeBase
					{
						OFFSET 0.00000 0.06325 14.43110
						CHANNELS 3 Zrotation Xrotation Yrotation
						End site
						{
							OFFSET 0.00000 0.00000 0.00000
						}
					}
				}
			}
		}
	}
}
MOTION
Frames: 4
Frame Time: 0.050000
0.0 0.0 0.0 0.0 0.0 0.0 -3.6674424816737727 6.15095880146811 -0.7311655743030145 -1.0653742835818778 4.094735464233247 0.4526162731850269 -1.0158546074733912 0.7628861795447066 -0.021260339351740872 1.2306374931827049 1.048648567231415 -0.8065137675748907 0.002616245203622685 9.665005881167207 -1.155739362871201 -0.43487193218583053 -1.6589295089435185 -5.997729207351701 0.050097480945783875 -16.187615192491542 -0.4410643841599937 4.714295823888668 -0.7949889054449553 -14.469904182177244 62.622759731517405 17.420613979664775 12.983222627586235 17.96016506476521 6.161062365200283 94.30524702943299 13.83581600170275 -0.30524806003828225 -7.908109430826415 4.52871 -0.12703 -1.59312 -4.64595e-06 9.01534e-06 -56.2342 8.23465e-06 -9.55045e-07 -56.2342 -38.7697 2.616e-06 -3.03728e-06 1.51694e-05 2.54582e-06 3.19778e-06 -3.36779e-06 6.40269e-06 -1.74067e-06 -36.6938 -3.44578e-06 4.82161e-06 1.03628e-05 2.25643e-06 -1.00237e-06 -1.59028e-15 3.18055e-15 1.90833e-14 -19.7583 1.99729e-06 9.82298e-07 1.19088e-05 -1.70535e-06 -1.47446e-06 -7.95139e-16 3.57812e-15 3.18055e-15 24.0542 -1.29415e-06 -2.03572e-07 28.8651 4.69993e-06 -2.49464e-06 28.8651 4.67541e-06 2.50252e-06 -4.991579376505425 -0.5350611798969861 12.881750946444427 -62.52643761930145 28.196770899729206 -7.345646444510549 -2.263532863007228 3.797239846785463 -63.876231970607 -13.586325596378183 3.8458034675337367 0.3779760140027693 -0.474211 0.0677175 -8.12381 -7.57701e-06 -7.52602e-07 44.5675 -2.34874e-06 -9.76287e-07 44.5675 12.4601 -8.06117e-07 4.96022e-06 -1.98259e-05 -5.83324e-07 -1.40447e-07 -3.18055e-15 1.59028e-15 -9.54166e-15 11.1059 -5.13129e-07 -3.38467e-06 3.12111e-07 1.50825e-07 1.16352e-06 5.56875e-08 -1.53149e-07 -1.37717e-07 4.77241 1.48801e-06 -1.13665e-06 -2.79682e-07 7.26536e-07 7.29834e-07 -1.95777e-07 5.08575e-07 5.10883e-07 -5.60077 7.82297e-07 -2.03231e-07 -6.72092 -3.47366e-06 4.68464e-06 -6.72092 -1.30631e-08 -7.87263e-07 -1.19271e-15 1.09925e-15 -3.18055e-15 8.04465 3.49397 -19.2195 -2.21424e-05 10.395 0.0142586 -5.62103 -15.6599 3.19225 3.97569e-16 7.95139e-16 -1.59028e-15 1.81331e-08 4.69756 -4.30096e-07 12.4594 -8.23857 6.88324 1.34357e-05 46.3794 0.00174233 -4.32522 -14.7485 -3.83531 3.18055e-15 -3.18055e-15 9.54166e-15 1.35867e-07 -10.745 -2.59575e-06
0.0 0.0 0.0 0.0 0.0 0.0 -3.606738165161729 6.271673726092369 -0.7333589943984065 -1.0511870802033623 4.07087227128409 0.44902193955758574 -0.9996799298862251 0.7743645094690291 -0.09813213794394204 1.2185062312751858 1.0353098919642199 -0.8180785481449684 -0.03216591183781877 9.511522215819687 -1.1355315055446396 -0.44962472346019344 -1.7390811075326946 -5.946599500255179 0.023803466189877588 -16.32006918201514 -0.4360252515779177 4.804485480896768 -0.8109679519010426 -14.349750699715353 62.6792305279317 17.018892466729117 12.552456788415038 19.591362218013487 6.688739636159476 93.85618138514579 14.267727201135155 -0.28374909901706397 -8.103345636223244 4.52871 -0.12703 -1.59312 -4.64595e-06 9.01534e-06 -56.2342 8.23465e-06 -9.55045e-07 -56.2342 -38.7697 2.616e-06 -3.03728e-06 1.51694e-05 2.54582e-06 3.19778e-06 -3.36779e-06 6.40269e-06 -1.74067e-06 -36.6938 -3.44578e-06 4.82161e-06 1.03628e-05 2.25643e-06 -1.00237e-06 -1.59028e-15 3.18055e-15 1.90833e-14 -19.7583 1.99729e-06 9.82298e-07 1.19088e-05 -1.70535e-06 -1.47446e-06 -7.95139e-16 3.57812e-15 3.18055e-15 24.0542 -1.29415e-06 -2.03572e-07 28.8651 4.69993e-06 -2.49464e-06 28.8651 4.67541e-06 2.50252e-06 -4.920079410016415 -0.5190522227265706 12.753775967806678 -62.2004654318483 28.277335928263707 -7.711688298975612 -3.829113293068041 4.425606282392782 -66.36910049375743 -13.97212242908385 3.3734038842084906 0.5548644982754625 -0.474211 0.0677175 -8.12381 -7.57701e-06 -7.52602e-07 44.5675 -2.34874e-06 -9.76287e-07 44.5675 12.4601 -8.06117e-07 4.96022e-06 -1.98259e-05 -5.83324e-07 -1.40447e-07 -3.18055e-15 1.59028e-15 -9.54166e-15 11.1059 -5.13129e-07 -3.38467e-06 3.12111e-07 1.50825e-07 1.16352e-06 5.56875e-08 -1.53149e-07 -1.37717e-07 4.77241 1.48801e-06 -1.13665e-06 -2.79682e-07 7.26536e-07 7.29834e-07 -1.95777e-07 5.08575e-07 5.10883e-07 -5.60077 7.82297e-07 -2.03231e-07 -6.72092 -3.47366e-06 4.68464e-06 -6.72092 -1.30631e-08 -7.87263e-07 -1.19271e-15 1.09925e-15 -3.18055e-15 8.04465 3.49397 -19.2195 -2.21424e-05 10.395 0.0142586 -5.62103 -15.6599 3.19225 3.97569e-16 7.95139e-16 -1.59028e-15 1.81331e-08 4.69756 -4.30096e-07 12.4594 -8.23857 6.88324 1.34357e-05 46.3794 0.00174233 -4.32522 -14.7485 -3.83531 3.18055e-15 -3.18055e-15 9.54166e-15 1.35867e-07 -10.745 -2.59575e-06
0.0 0.0 0.0 0.0 0.0 0.0 -3.455288824423803 6.2790150370143305 -0.7463673437704674 -1.03263755432512 4.034793014055418 0.4440352229532207 -0.9796668781285739 0.7414180226733994 -0.17974246237755337 1.1822114562780404 1.0080511255057731 -0.8254511648873014 -0.07219576179924317 9.42882398170819 -1.0743354452288096 -0.4474406894253221 -1.7624089604248683 -5.7440281845528185 0.004756531563915255 -16.394400534778036 -0.4195906524782314 4.722674439984569 -0.7717904107278695 -14.221153291323194 63.088410253067686 16.87782915227106 12.087025064413389 21.655160699509878 7.188120031515169 93.84839644809149 14.648901427145477 -0.266504590214529 -8.26918610423286 4.52871 -0.12703 -1.59312 -4.64595e-06 9.01534e-06 -56.2342 8.23465e-06 -9.55045e-07 -56.2342 -38.7697 2.616e-06 -3.03728e-06 1.51694e-05 2.54582e-06 3.19778e-06 -3.36779e-06 6.40269e-06 -1.74067e-06 -36.6938 -3.44578e-06 4.82161e-06 1.03628e-05 2.25643e-06 -1.00237e-06 -1.59028e-15 3.18055e-15 1.90833e-14 -19.7583 1.99729e-06 9.82298e-07 1.19088e-05 -1.70535e-06 -1.47446e-06 -7.95139e-16 3.57812e-15 3.18055e-15 24.0542 -1.29415e-06 -2.03572e-07 28.8651 4.69993e-06 -2.49464e-06 28.8651 4.67541e-06 2.50252e-06 -4.62054846081504 -0.4576814017888882 12.612496140206781 -62.15029414250116 28.511910938625505 -8.22795875170683 -5.890306284922864 5.05464014102412 -69.44151689238184 -14.15301028129378 2.767158380482507 0.783748194983385 -0.474211 0.0677175 -8.12381 -7.57701e-06 -7.52602e-07 44.5675 -2.34874e-06 -9.76287e-07 44.5675 12.4601 -8.06117e-07 4.96022e-06 -1.98259e-05 -5.83324e-07 -1.40447e-07 -3.18055e-15 1.59028e-15 -9.54166e-15 11.1059 -5.13129e-07 -3.38467e-06 3.12111e-07 1.50825e-07 1.16352e-06 5.56875e-08 -1.53149e-07 -1.37717e-07 4.77241 1.48801e-06 -1.13665e-06 -2.79682e-07 7.26536e-07 7.29834e-07 -1.95777e-07 5.08575e-07 5.10883e-07 -5.60077 7.82297e-07 -2.03231e-07 -6.72092 -3.47366e-06 4.68464e-06 -6.72092 -1.30631e-08 -7.87263e-07 -1.19271e-15 1.09925e-15 -3.18055e-15 8.04465 3.49397 -19.2195 -2.21424e-05 10.395 0.0142586 -5.62103 -15.6599 3.19225 3.97569e-16 7.95139e-16 -1.59028e-15 1.81331e-08 4.69756 -4.30096e-07 12.4594 -8.23857 6.88324 1.34357e-05 46.3794 0.00174233 -4.32522 -14.7485 -3.83531 3.18055e-15 -3.18055e-15 9.54166e-15 1.35867e-07 -10.745 -2.59575e-06
0.0 0.0 0.0 0.0 0.0 0.0 -3.2808473411970396 6.2078620185863365 -0.7615747702753602 -1.010274831290303 3.997736959425093 0.4376493782949353 -0.9591821979116664 0.6756713356964814 -0.26435504775587965 1.1306434478654241 0.9708965460224213 -0.8308787050879031 -0.11426511920867889 9.437360121794589 -0.9994329421356125 -0.4300169407615575 -1.742024083004113 -5.468604667170496 -0.0033522805305859727 -16.417278611587165 -0.39814332181886863 4.560654585518738 -0.7074220490366254 -14.108362840511713 63.609897241107504 16.63352973632012 11.564520433775872 24.050466674222093 7.694263136742062 94.05345695692425 14.929600384095522 -0.25057077543496786 -8.40644108583121 4.52871 -0.12703 -1.59312 -4.64595e-06 9.01534e-06 -56.2342 8.23465e-06 -9.55045e-07 -56.2342 -38.7697 2.616e-06 -3.03728e-06 1.51694e-05 2.54582e-06 3.19778e-06 -3.36779e-06 6.40269e-06 -1.74067e-06 -36.6938 -3.44578e-06 4.82161e-06 1.03628e-05 2.25643e-06 -1.00237e-06 -1.59028e-15 3.18055e-15 1.90833e-14 -19.7583 1.99729e-06 9.82298e-07 1.19088e-05 -1.70535e-06 -1.47446e-06 -7.95139e-16 3.57812e-15 3.18055e-15 24.0542 -1.29415e-06 -2.03572e-07 28.8651 4.69993e-06 -2.49464e-06 28.8651 4.67541e-06 2.50252e-06 -4.192988918368255 -0.36737650495514923 12.494020353006979 -62.256518949032895 28.714492368631934 -8.89572799603167 -8.025738376690015 5.588330133480853 -73.02996008837005 -14.18926366680516 2.2639237144620843 0.8888450465257165 -0.474211 0.0677175 -8.12381 -7.57701e-06 -7.52602e-07 44.5675 -2.34874e-06 -9.76287e-07 44.5675 12.4601 -8.06117e-07 4.96022e-06 -1.98259e-05 -5.83324e-07 -1.40447e-07 -3.18055e-15 1.59028e-15 -9.54166e-15 11.1059 -5.13129e-07 -3.38467e-06 3.12111e-07 1.50825e-07 1.16352e-06 5.56875e-08 -1.53149e-07 -1.37717e-07 4.77241 1.48801e-06 -1.13665e-06 -2.79682e-07 7.26536e-07 7.29834e-07 -1.95777e-07 5.08575e-07 5.10883e-07 -5.60077 7.82297e-07 -2.03231e-07 -6.72092 -3.47366e-06 4.68464e-06 -6.72092 -1.30631e-08 -7.87263e-07 -1.19271e-15 1.09925e-15 -3.18055e-15 8.04465 3.49397 -19.2195 -2.21424e-05 10.395 0.0142586 -5.62103 -15.6599 3.19225 3.97569e-16 7.95139e-16 -1.59028e-15 1.81331e-08 4.69756 -4.30096e-07 12.4594 -8.23857 6.88324 1.34357e-05 46.3794 0.00174233 -4.32522 -14.7485 -3.83531 3.18055e-15 -3.18055e-15 9.54166e-15 1.35867e-07 -10.745 -2.59575e-06
